<svg class="animated" id="freepik_stories-super-thank-you" xmlns="http://www.w3.org/2000/svg" xmlns:xlink="http://www.w3.org/1999/xlink" viewBox="0 0 500 500" version="1.1" xmlns:svgjs="http://svgjs.com/svgjs"><style>svg#freepik_stories-super-thank-you:not(.animated) .animable {opacity: 0;}svg#freepik_stories-super-thank-you.animated #freepik--background-simple--inject-74 {animation: 1.5s Infinite  linear floating;animation-delay: 0s;}            @keyframes floating {                0% {                    opacity: 1;                    transform: translateY(0px);                }                50% {                    transform: translateY(-10px);                }                100% {                    opacity: 1;                    transform: translateY(0px);                }            }        </style><g id="freepik--background-simple--inject-74" class="animable animator-active" style="transform-origin: 250.402px 241.225px;"><path d="M163.82,48S84.89,88.22,45.52,150.2,9.26,291.83,57.1,351s139.28,51.4,215.83,88.88,161,29.77,197.23-49.65-18.39-109.09-27.77-201S350.17-37.21,163.82,48Z" style="fill: rgb(64, 123, 255); transform-origin: 250.402px 241.225px;" id="elyxrgalzhux8" class="animable"></path><g id="elobeuwknv9td"><path d="M163.82,48S84.89,88.22,45.52,150.2,9.26,291.83,57.1,351s139.28,51.4,215.83,88.88,161,29.77,197.23-49.65-18.39-109.09-27.77-201S350.17-37.21,163.82,48Z" style="fill: rgb(255, 255, 255); opacity: 0.7; transform-origin: 250.402px 241.225px;" class="animable"></path></g></g><g id="freepik--Plants--inject-74" class="animable" style="transform-origin: 412.606px 340.04px;"><path d="M438.27,240.16s0-6.54-9.16-15.69-15-14.39-15-14.39-4.58,15,3.92,24.2,20.28,17.65,20.28,17.65Z" style="fill: rgb(64, 123, 255); transform-origin: 425.594px 231.005px;" id="el6vsqw4t0b1k" class="animable"></path><path d="M425,281s0-6.54-9.16-15.69-15-14.39-15-14.39-4.58,15,3.93,24.2S425,292.77,425,292.77Z" style="fill: rgb(64, 123, 255); transform-origin: 412.305px 271.845px;" id="els87dhc5kc0k" class="animable"></path><path d="M437.69,251.3s.69-6.5,10.76-14.64,16.48-12.72,16.48-12.72,3,15.44-6.46,23.65-22,15.42-22,15.42Z" style="fill: rgb(64, 123, 255); transform-origin: 450.926px 243.475px;" id="el6hza6l1cbxw" class="animable"></path><path d="M421.64,299.53s1.37-6.39,12.24-13.43,17.72-10.91,17.72-10.91,1.32,15.66-8.91,22.84-23.52,13-23.52,13Z" style="fill: rgb(64, 123, 255); transform-origin: 435.413px 293.11px;" id="elhl4a63m1ivn" class="animable"></path><path d="M424.66,352.12s0-6.54,9.15-15.69,15-14.39,15-14.39,4.58,15-3.92,24.19-20.27,17.66-20.27,17.66Z" style="fill: rgb(64, 123, 255); transform-origin: 437.331px 342.965px;" id="eldt13d0u0i1o" class="animable"></path><path d="M424.5,365s.93-6.48-6.83-16.84-12.84-16.38-12.84-16.38-6.67,14.24.44,24.51,17.56,20.36,17.56,20.36Z" style="fill: rgb(64, 123, 255); transform-origin: 413.263px 354.215px;" id="elf149uzbw16" class="animable"></path><path d="M415.48,403s0-6.54,9.15-15.7,15-14.38,15-14.38,4.58,15-3.92,24.19-20.27,17.66-20.27,17.66Z" style="fill: rgb(64, 123, 255); transform-origin: 428.151px 393.845px;" id="ellbyp2uht97b" class="animable"></path><path d="M421.59,437.49s-1.66-6.33,4.88-17.51,10.91-17.72,10.91-17.72,8.23,13.39,2.33,24.4-15.14,22.21-15.14,22.21Z" style="fill: rgb(64, 123, 255); transform-origin: 431.621px 425.565px;" id="elqybym4ghrsg" class="animable"></path><path d="M439.09,238.49a186.79,186.79,0,0,1-2.5,20.3c-3.62,18.7-12.67,30.76-16.29,47.65s6.77,38.65,4,60.34-11.23,33.76-8.81,48.24,15.08,53.68,15.08,53.68" style="fill: none; stroke: rgb(38, 50, 56); stroke-linecap: round; stroke-linejoin: round; transform-origin: 427.075px 353.595px;" id="el9tgocpi8qct" class="animable"></path><line x1="437.6" y1="255.65" x2="447.47" y2="248.08" style="fill: none; stroke: rgb(38, 50, 56); stroke-linecap: round; stroke-linejoin: round; transform-origin: 442.535px 251.865px;" id="el04k0ge1wyys5" class="animable"></line><line x1="438.06" y1="246.93" x2="433.93" y2="239.59" style="fill: none; stroke: rgb(38, 50, 56); stroke-linecap: round; stroke-linejoin: round; transform-origin: 435.995px 243.26px;" id="elsihxz2skd8b" class="animable"></line><path d="M420.85,305.67s8.26-6.2,16.75-12.39" style="fill: none; stroke: rgb(38, 50, 56); stroke-linecap: round; stroke-linejoin: round; transform-origin: 429.225px 299.475px;" id="ellngyn2b0fkl" class="animable"></path><path d="M425,292.77s-6.88-13.49-14.69-22.44" style="fill: none; stroke: rgb(38, 50, 56); stroke-linecap: round; stroke-linejoin: round; transform-origin: 417.655px 281.55px;" id="el9azvhjidli" class="animable"></path><path d="M425,361.42a102,102,0,0,1,17.67-23.63" style="fill: none; stroke: rgb(38, 50, 56); stroke-linecap: round; stroke-linejoin: round; transform-origin: 433.835px 349.605px;" id="el12hb7y1b91vh" class="animable"></path><path d="M423.37,370.6a115.81,115.81,0,0,0-8.95-17c-4.81-7.11-5.5-8-5.5-8" style="fill: none; stroke: rgb(38, 50, 56); stroke-linecap: round; stroke-linejoin: round; transform-origin: 416.145px 358.1px;" id="elz9jav74xknf" class="animable"></path><path d="M415.48,415a109.44,109.44,0,0,1,7.43-15,96.49,96.49,0,0,1,9.64-12.62" style="fill: none; stroke: rgb(38, 50, 56); stroke-linecap: round; stroke-linejoin: round; transform-origin: 424.015px 401.19px;" id="el066nmymsujdd" class="animable"></path><path d="M424.57,448.87s-1-7.83,2.47-14.48S434.39,419,436,415.57" style="fill: none; stroke: rgb(38, 50, 56); stroke-linecap: round; stroke-linejoin: round; transform-origin: 430.218px 432.22px;" id="eljoirybw9o3" class="animable"></path><path d="M378.31,327.53s-.71-4.1,4-10.84S390.22,306,390.22,306s4.5,8.93.17,15.6a102.67,102.67,0,0,1-10.8,13.27Z" style="fill: rgb(64, 123, 255); transform-origin: 385.272px 320.435px;" id="el3omsl4ohbq5" class="animable"></path><path d="M391.08,351.69s-.71-4.1,4-10.83S403,330.2,403,330.2s4.5,8.94.16,15.6a102.68,102.68,0,0,1-10.79,13.28Z" style="fill: rgb(64, 123, 255); transform-origin: 398.045px 344.64px;" id="el9fzgj3ic7yt" class="animable"></path><path d="M379.88,334.45s-1.14-4-8.34-8-11.71-6.19-11.71-6.19-.18,10,6.62,14.13a102.48,102.48,0,0,0,15.48,7.27Z" style="fill: rgb(64, 123, 255); transform-origin: 370.88px 330.96px;" id="eln4xvxjy97zq" class="animable"></path><path d="M395.18,363s-1.55-3.86-9.13-7.09-12.3-4.92-12.3-4.92.87,10,8.07,13.35A101.83,101.83,0,0,0,398,369.9Z" style="fill: rgb(64, 123, 255); transform-origin: 385.875px 360.445px;" id="el0c1zsudriquh" class="animable"></path><path d="M399,396.26s-.71-4.1-7.44-8.85-11-7.39-11-7.39-1.24,9.93,5.09,14.75a102.86,102.86,0,0,0,14.63,8.87Z" style="fill: rgb(64, 123, 255); transform-origin: 390.371px 391.83px;" id="eliphnvzf887" class="animable"></path><path d="M400.49,404.29s-1.29-4,2.46-11.3,6.27-11.67,6.27-11.67,5.73,8.21,2.38,15.42a101.83,101.83,0,0,1-8.8,14.67Z" style="fill: rgb(64, 123, 255); transform-origin: 406.463px 396.365px;" id="el7kpokm0q2pr" class="animable"></path><path d="M412,437.37s.48-4.14,6.93-9.26,10.55-8,10.55-8,1.81,9.85-4.23,15a102.41,102.41,0,0,1-14.1,9.69Z" style="fill: rgb(64, 123, 255); transform-origin: 420.442px 432.455px;" id="el44gryai0fig" class="animable"></path><path d="M410.28,427.16s-.71-4.1-7.44-8.84-11-7.39-11-7.39-1.24,9.92,5.09,14.74a101.8,101.8,0,0,0,14.63,8.87Z" style="fill: rgb(64, 123, 255); transform-origin: 401.651px 422.735px;" id="eliqocbuila4j" class="animable"></path><path d="M410.19,449.45s.35-4.14-5-10.44-8.76-9.93-8.76-9.93-3.72,9.29,1.18,15.55a102.76,102.76,0,0,0,11.91,12.29Z" style="fill: rgb(64, 123, 255); transform-origin: 402.636px 443px;" id="el1yzg2sfe5yzj" class="animable"></path><path d="M377.61,326.57A120.23,120.23,0,0,0,381.39,339c4.3,11.33,11.28,17.91,15.38,28.11s0,25,4.05,38.27,10.71,19.95,10.77,29.29S408,470,408,470" style="fill: none; stroke: rgb(38, 50, 56); stroke-linecap: round; stroke-linejoin: round; transform-origin: 394.6px 398.285px;" id="elcc7novjpc15" class="animable"></path><line x1="380.41" y1="337.16" x2="373.4" y2="333.49" style="fill: none; stroke: rgb(38, 50, 56); stroke-linecap: round; stroke-linejoin: round; transform-origin: 376.905px 335.325px;" id="el1nw0emdb411" class="animable"></line><line x1="379.18" y1="331.75" x2="380.97" y2="326.69" style="fill: none; stroke: rgb(38, 50, 56); stroke-linecap: round; stroke-linejoin: round; transform-origin: 380.075px 329.22px;" id="elci1ynsozyz" class="animable"></line><path d="M396.34,366.71s-5.85-3-11.84-5.95" style="fill: none; stroke: rgb(38, 50, 56); stroke-linecap: round; stroke-linejoin: round; transform-origin: 390.42px 363.735px;" id="elft05k2b0zkp" class="animable"></path><path d="M392.36,359.08s2.85-9.21,6.77-15.67" style="fill: none; stroke: rgb(38, 50, 56); stroke-linecap: round; stroke-linejoin: round; transform-origin: 395.745px 351.245px;" id="elvtd7dg554s" class="animable"></path><path d="M399.81,402.13a65.07,65.07,0,0,0-13.65-12.91" style="fill: none; stroke: rgb(38, 50, 56); stroke-linecap: round; stroke-linejoin: round; transform-origin: 392.985px 395.675px;" id="elxm6ag0a2zqn" class="animable"></path><path d="M401.81,407.71a73.43,73.43,0,0,1,3.77-11.62c2.25-5,2.58-5.64,2.58-5.64" style="fill: none; stroke: rgb(38, 50, 56); stroke-linecap: round; stroke-linejoin: round; transform-origin: 404.985px 399.08px;" id="el16j0629fpvzj" class="animable"></path><path d="M411.27,441.78s4.64-5.69,7.53-7.82a39.51,39.51,0,0,0,4.9-4.26" style="fill: none; stroke: rgb(38, 50, 56); stroke-linecap: round; stroke-linejoin: round; transform-origin: 417.485px 435.74px;" id="elwyc5ba8cai" class="animable"></path><path d="M411.59,434.7a70.63,70.63,0,0,0-6.3-8.63,60.87,60.87,0,0,0-7.42-6.86" style="fill: none; stroke: rgb(38, 50, 56); stroke-linecap: round; stroke-linejoin: round; transform-origin: 404.73px 426.955px;" id="elz1b0wp72ro8" class="animable"></path><path d="M409.56,456.92a17.9,17.9,0,0,0-3.13-8.82c-2.88-3.79-6.27-8.84-7.65-10.82" style="fill: none; stroke: rgb(38, 50, 56); stroke-linecap: round; stroke-linejoin: round; transform-origin: 404.17px 447.1px;" id="elcsb0hzpw3i9" class="animable"></path></g><g id="freepik--Text--inject-74" class="animable" style="transform-origin: 375.434px 135.279px;"><path d="M351.41,130.9V107h-4.66v-2.7H358.9V107h-4.67v23.9Z" style="fill: rgb(38, 50, 56); transform-origin: 352.825px 117.6px;" id="elqmxxxrk5woh" class="animable"></path><path d="M363.68,118.93v12h-2.83V104.3h2.83v12h6.22v-12h2.82v26.6H369.9v-12Z" style="fill: rgb(38, 50, 56); transform-origin: 366.785px 117.615px;" id="elmgjl5yus7u" class="animable"></path><path d="M378.47,125.54l-1,5.36h-2.61l4.85-26.6h4.09l4.84,26.6h-2.82l-1-5.36Zm.36-2.55h5.65l-2.86-15.35Z" style="fill: rgb(38, 50, 56); transform-origin: 381.75px 117.6px;" id="el0we3djmhr78" class="animable"></path><path d="M393.38,130.9h-2.53V104.3h3.58l5.86,19.23V104.3h2.49v26.6h-2.93l-6.47-21.51Z" style="fill: rgb(38, 50, 56); transform-origin: 396.815px 117.6px;" id="el5cgr2y6ifo4" class="animable"></path><path d="M410,119.35,408.5,122v8.93h-2.82V104.3h2.82v12.84l6.73-12.84h2.86l-6.41,12.12,6.62,14.48h-2.89Z" style="fill: rgb(38, 50, 56); transform-origin: 411.99px 117.615px;" id="el8oudwzg1uqe" class="animable"></path><path d="M355.06,160.36l-5.35-17.06h2.93l3.94,13.07,4-13.07h2.68l-5.39,17.06v9.54h-2.79Z" style="fill: rgb(38, 50, 56); transform-origin: 356.485px 156.6px;" id="el3p2876fxlts" class="animable"></path><path d="M364.51,149.72c0-4.06,1.91-6.69,5.78-6.69s5.83,2.63,5.83,6.69v13.76c0,4-1.92,6.68-5.83,6.68s-5.78-2.66-5.78-6.68Zm2.78,13.91c0,2.43,1,3.83,3,3.83s3-1.4,3-3.83V149.57c0-2.39-.94-3.84-3-3.84s-3,1.45-3,3.84Z" style="fill: rgb(38, 50, 56); transform-origin: 370.315px 156.595px;" id="elf3hjxtbhddw" class="animable"></path><path d="M381.47,163.63c0,2.39.91,3.83,3,3.83s2.93-1.44,2.93-3.83V143.3H390v20.18c0,4-1.77,6.72-5.68,6.72s-5.64-2.7-5.64-6.72V143.3h2.78Z" style="fill: rgb(38, 50, 56); transform-origin: 384.34px 156.75px;" id="elfnd3wq525n" class="animable"></path><path d="M392.8,155.8V143.3h2.82v12.5l-.36,8.21h-2.1Zm2.75,10.41v3.69h-2.72v-3.69Z" style="fill: rgb(38, 50, 56); transform-origin: 394.21px 156.6px;" id="ellfw5f4lqh5d" class="animable"></path><path d="M398.51,155.8V143.3h2.83v12.5L401,164h-2.09Zm2.75,10.41v3.69h-2.71v-3.69Z" style="fill: rgb(38, 50, 56); transform-origin: 399.925px 156.6px;" id="eldqb6v6588tg" class="animable"></path><path d="M335.09,128c.25-.16-.1-3.7-.1-4,.05-12.21,1.89-25.67,10.16-35.24,5.46-6.31,13.29-10.25,21.4-12.21C380.81,73,397.41,75.08,410,82.82a47,47,0,0,1,4,2.72,41.58,41.58,0,0,1,14.78,22.29,85.8,85.8,0,0,1,2.48,19,113.85,113.85,0,0,1-1.55,26.79,56.15,56.15,0,0,1-14,27.73c-7.48,7.92-18.56,12.8-29.35,14A45,45,0,0,1,357,188.83c-9.94-6.42-15.81-16.71-18.07-28.14C338,156,337,142.53,337,142.53l-17.6-5Z" style="fill: none; stroke: rgb(38, 50, 56); stroke-linejoin: round; stroke-width: 1.9401px; transform-origin: 375.434px 135.279px;" id="el2e2ke7mq7j4" class="animable"></path></g><g id="freepik--Characters--inject-74" class="animable" style="transform-origin: 209.364px 273.405px;"><polygon points="287.92 476.69 285.34 422.59 244.27 424.54 246.16 476.69 287.92 476.69" style="fill: rgb(38, 50, 56); stroke: rgb(38, 50, 56); stroke-linecap: round; stroke-linejoin: round; transform-origin: 266.095px 449.64px;" id="el6v2gspeytsd" class="animable"></polygon><path d="M302.07,205.51s29.55,4.78,30.42,9.13S341,333.93,340.1,341.75s-22.38,1.09-32.38-1.08-12.17-13.48-12.17-13.48l-3.91-46.06-10.43,48.24,13.47,99.95-53,2.61H162.57V190.3s82.14,1.3,86.92.87S302.07,205.51,302.07,205.51Z" style="fill: rgb(64, 123, 255); transform-origin: 251.372px 311.115px;" id="elt2uleacmrb" class="animable"></path><g style="clip-path: url(&quot;#freepik--clip-path--inject-74&quot;); transform-origin: 241.837px 311.115px;" id="elxduvlrouvk" class="animable"><g id="elgsixbgxpfut"><path d="M314.52,325.17c5.11-11.06,7.66-81.71,6-90.22s0,0-9.37,3.4,6-12.77,6-20.43-27.24,0-27.24,0l3.2-15.17c-14.1-4.25-40.08-11.9-43.54-11.58-4.78.43-86.92-.87-86.92-.87V431.93h79.09l34.42-1.69L266,327.72l24.68-43.41.06,1,.9-4.17,3.91,46.06a20.92,20.92,0,0,0,1.4,4.09C302,332.33,311,332.88,314.52,325.17Z" style="stroke: rgb(38, 50, 56); stroke-linecap: round; stroke-linejoin: round; opacity: 0.2; transform-origin: 241.837px 311.115px;" class="animable"></path></g></g><path d="M302.07,205.51s29.55,4.78,30.42,9.13S341,333.93,340.1,341.75s-22.38,1.09-32.38-1.08-12.17-13.48-12.17-13.48l-3.91-46.06-10.43,48.24,13.47,99.95-53,2.61H162.57V190.3s82.14,1.3,86.92.87S302.07,205.51,302.07,205.51Z" style="fill: none; stroke: rgb(38, 50, 56); stroke-linecap: round; stroke-linejoin: round; transform-origin: 251.372px 311.115px;" id="el3mfj5p6phex" class="animable"></path><polyline points="272.3 205.51 267.74 253.1 257.31 258.96 263.18 271.35 239.06 312.42" style="fill: none; stroke: rgb(38, 50, 56); stroke-linecap: round; stroke-linejoin: round; transform-origin: 255.68px 258.965px;" id="elzex4axdkom" class="animable"></polyline><path d="M113.51,235.71l-24,47.07s-6.72,13.45-7.14,22.7,14.71,15.13,25.21,13.87,17.65-15.13,21.86-24.38,13.45-33.62,13.45-45.81S122.75,223.52,113.51,235.71Z" style="fill: rgb(64, 123, 255); stroke: rgb(38, 50, 56); stroke-linecap: round; stroke-linejoin: round; transform-origin: 112.626px 275.215px;" id="elkeu7fayha68" class="animable"></path><g id="elggqafoiszp"><path d="M116.91,236.56,93,283.63s-6.73,13.45-7.15,22.7S100.52,321.46,111,320.2s17.65-15.13,21.85-24.38S146.33,262.2,146.33,250,126.16,224.38,116.91,236.56Z" style="stroke: rgb(38, 50, 56); stroke-linecap: round; stroke-linejoin: round; opacity: 0.2; transform-origin: 116.086px 276.065px;" class="animable"></path></g><path d="M128.24,166.4s-18.26,3.91-33.9,12.38-18.25,26.73-8.48,38.46,25.43,15.65,25.43,15.65,20.21,71.05,18.9,78.22-26.07,45-33.9,78.23,9.13,87.35,9.13,87.35h148s8.47-42.37-2.61-78.88-15.65-58-15-72.35,11.73-60,15-65.84,28-33.25,35.85-37.16,39.12-19.56,41.72-35.85-.65-17.61-9.12-22.17-33.25-3.91-43-3.91S183,157.27,183,157.27Z" style="fill: rgb(255, 255, 255); transform-origin: 204.685px 316.98px;" id="elm38qx9eilap" class="animable"></path><g style="clip-path: url(&quot;#freepik--clip-path-2--inject-74&quot;); transform-origin: 187.286px 329.43px;" id="elrfxbwv8ezz" class="animable"><g id="el5gqe2bz1ny4"><path d="M120.45,246.86c3.4,21.28,6,40.86,6,40.86l-.53,0c2.8,11.56,4.75,21,4.31,23.41-.72,3.95-8.54,17.18-16.74,33.82,9.38-1.59,16.81-2.63,11.25,6.63-7.66,12.77-23,45.11-21.28,75.75,1.18,21.27,8.92,40.37,13.55,49.38H236.31c2-21.32,3.94-60.13-5.21-78.32C217.93,372.2,223.44,349,220.89,326s4.25-63.84,18.7-80.64,50.24-29.16,48.54-45.33-49.37.85-49.37.85-7.66-9.37-19.58-9.37-68.09-9.36-80-9.36-28.09,0-38.3,2.55-17,12.77-13.62,25.54S117,225.58,120.45,246.86Z" style="opacity: 0.2; transform-origin: 187.286px 329.43px;" class="animable"></path></g></g><path d="M128.24,166.4s-18.26,3.91-33.9,12.38-18.25,26.73-8.48,38.46,25.43,15.65,25.43,15.65,20.21,71.05,18.9,78.22-26.07,45-33.9,78.23,9.13,87.35,9.13,87.35h148s8.47-42.37-2.61-78.88-15.65-58-15-72.35,11.73-60,15-65.84,28-33.25,35.85-37.16,39.12-19.56,41.72-35.85-.65-17.61-9.12-22.17-33.25-3.91-43-3.91S183,157.27,183,157.27Z" style="fill: none; stroke: rgb(38, 50, 56); stroke-linecap: round; stroke-linejoin: round; transform-origin: 204.685px 316.98px;" id="elg8rhvswh9ym" class="animable"></path><path d="M151.85,258.67s14.54,31.85,45,48.47" style="fill: none; stroke: rgb(38, 50, 56); stroke-linecap: round; stroke-linejoin: round; transform-origin: 174.35px 282.905px;" id="ela6aynrvb85" class="animable"></path><path d="M168.47,299.52a426.86,426.86,0,0,0,45.69,25.62" style="fill: none; stroke: rgb(38, 50, 56); stroke-linecap: round; stroke-linejoin: round; transform-origin: 191.315px 312.33px;" id="elc34z51enzqs" class="animable"></path><path d="M143.54,327.91s12.46,11.77,42.93,22.85" style="fill: none; stroke: rgb(38, 50, 56); stroke-linecap: round; stroke-linejoin: round; transform-origin: 165.005px 339.335px;" id="el9h84gbgd898" class="animable"></path><path d="M250.79,397.81c-2.46-8.11-4.6-15.48-6.44-22.2-63.62,21.61-124.63,2.89-142.69-3.72a150.64,150.64,0,0,0-5.37,17.45c-7.82,33.25,9.13,87.35,9.13,87.35h148S261.87,434.32,250.79,397.81Z" style="fill: rgb(38, 50, 56); transform-origin: 175.366px 424.29px;" id="elrl509ihbw9h" class="animable"></path><g style="clip-path: url(&quot;#freepik--clip-path-3--inject-74&quot;); transform-origin: 187.286px 329.43px;" id="el4fysjotdqxv" class="animable"><g id="eldlu0y8959a"><path d="M120.45,246.86c3.4,21.28,6,40.86,6,40.86l-.53,0c2.8,11.56,4.75,21,4.31,23.41-.72,3.95-8.54,17.18-16.74,33.82,9.38-1.59,16.81-2.63,11.25,6.63-7.66,12.77-23,45.11-21.28,75.75,1.18,21.27,8.92,40.37,13.55,49.38H236.31c2-21.32,3.94-60.13-5.21-78.32C217.93,372.2,223.44,349,220.89,326s4.25-63.84,18.7-80.64,50.24-29.16,48.54-45.33-49.37.85-49.37.85-7.66-9.37-19.58-9.37-68.09-9.36-80-9.36-28.09,0-38.3,2.55-17,12.77-13.62,25.54S117,225.58,120.45,246.86Z" style="stroke: rgb(38, 50, 56); stroke-linecap: round; stroke-linejoin: round; opacity: 0.2; transform-origin: 187.286px 329.43px;" class="animable"></path></g><line x1="147.57" y1="449.53" x2="179.73" y2="465.61" style="fill: none; stroke: rgb(102, 102, 102); stroke-linecap: round; stroke-linejoin: round; transform-origin: 163.65px 457.57px;" id="el6rlaq5t1z26" class="animable"></line><line x1="136.71" y1="444.1" x2="141.36" y2="446.42" style="fill: none; stroke: rgb(102, 102, 102); stroke-linecap: round; stroke-linejoin: round; transform-origin: 139.035px 445.26px;" id="eluwovcz76qn" class="animable"></line><line x1="154.96" y1="456.48" x2="174.52" y2="467.57" style="fill: none; stroke: rgb(102, 102, 102); stroke-linecap: round; stroke-linejoin: round; transform-origin: 164.74px 462.025px;" id="elm2ezppn2fqn" class="animable"></line></g><path d="M250.79,397.81c-2.46-8.11-4.6-15.48-6.44-22.2-63.62,21.61-124.63,2.89-142.69-3.72a150.64,150.64,0,0,0-5.37,17.45c-7.82,33.25,9.13,87.35,9.13,87.35h148S261.87,434.32,250.79,397.81Z" style="fill: none; stroke: rgb(38, 50, 56); stroke-linecap: round; stroke-linejoin: round; transform-origin: 175.366px 424.29px;" id="el1i3zcsvwzo1" class="animable"></path><path d="M295.83,170.08a81.72,81.72,0,0,0-11.79,6.1c-9.13,5.86-18.91,17.6-37.16,18.25" style="fill: none; stroke: rgb(38, 50, 56); stroke-linecap: round; stroke-linejoin: round; transform-origin: 271.355px 182.255px;" id="ele5kamt7lmd" class="animable"></path><path d="M305.55,166.4s-1.5.47-3.85,1.34" style="fill: none; stroke: rgb(38, 50, 56); stroke-linecap: round; stroke-linejoin: round; transform-origin: 303.625px 167.07px;" id="elyarr0tt915p" class="animable"></path><line x1="111.29" y1="232.89" x2="95.07" y2="214.36" style="fill: none; stroke: rgb(38, 50, 56); stroke-linecap: round; stroke-linejoin: round; transform-origin: 103.18px 223.625px;" id="elsqi5mvo7t2" class="animable"></line><path d="M104.77,178.36s11.77-4.85,22.15,2.07" style="fill: none; stroke: rgb(38, 50, 56); stroke-linecap: round; stroke-linejoin: round; transform-origin: 115.845px 178.569px;" id="el3x0lk15sxjq" class="animable"></path><path d="M192.12,74.7S178.21,66,157.79,72.53s-23.47,29.55-23.47,42.59,1.3,30.85-4.35,43.45-18.25,23.91-22.16,36.94A105,105,0,0,0,103.9,222l15.64,4.78,3-6.08.87,6.95,12.16,3.91V220.72c0-5.65,3-13.47,3-13.47s1.73,21.29,1.73,23.47v5.65s11.3,3.47,15.21,3.47h12.61l2.61-15.21,4.34,15.21s3.48,1.74,10.87,1.31,32.59-7,32.59-7l1.3-6.95,4.35,5.21,6.95-3s-1.74-4.78-3-10-3-11.3-3-11.3S233,219.85,235.58,222s4.34,3.48,4.34,3.48a46.21,46.21,0,0,0,12.61-6.95c7-5.22,14.77-11.74,14.77-11.74s-15.64-6.52-23-13-19.12-24.34-20.86-41.29.87-43.89-.43-53.89-6.09-4.34-14.35-12.6A51,51,0,0,0,192.12,74.7Z" style="fill: rgb(38, 50, 56); stroke: rgb(38, 50, 56); stroke-linecap: round; stroke-linejoin: round; transform-origin: 185.6px 155.659px;" id="el51h399y6ixb" class="animable"></path><path d="M166.7,79.7S153,81,147.14,98,153,132.5,153,156.62s-9.13,33.9-9.78,42.37" style="fill: none; stroke: gray; stroke-linecap: round; stroke-linejoin: round; transform-origin: 154.96px 139.345px;" id="el40izosdo5ne" class="animable"></path><path d="M175.82,79.7s-12.38,15.64-9.12,37.15,20.21,48.89,18.9,67.8-3.91,22.82-3.91,22.82" style="fill: none; stroke: gray; stroke-linecap: round; stroke-linejoin: round; transform-origin: 175.913px 143.585px;" id="elhs4wk0udmte" class="animable"></path><path d="M183.65,78.39s13.69,13.69,16.29,29.34-8.47,30.64-5.21,47.58S208.42,186,208.42,186" style="fill: none; stroke: gray; stroke-linecap: round; stroke-linejoin: round; transform-origin: 196.035px 132.195px;" id="elxsm8h904ix" class="animable"></path><path d="M193.42,80.35A51.67,51.67,0,0,1,205.81,99.9c3.91,11.74-2,27.38,2.61,41.07" style="fill: none; stroke: gray; stroke-linecap: round; stroke-linejoin: round; transform-origin: 200.92px 110.66px;" id="el9oushn8nazq" class="animable"></path><path d="M288.7,141.86s4.77-10.17,7.95-3.18-2.23,18.12-5.41,21-7.62,0-7.62-1.27S288.7,141.86,288.7,141.86Z" style="fill: rgb(178, 178, 178); stroke: rgb(38, 50, 56); stroke-linecap: round; stroke-linejoin: round; transform-origin: 290.619px 148.572px;" id="elp4f6mgez8we" class="animable"></path><path d="M220.42,101s-1.66,42.24-1.11,54.47,13.34,35.57,22.79,37.79,25-3.33,31.12-8.33,12.23-25.57,12.23-25.57,6.12-30,9.45-40.57,1.67-23.34-10-34.46-31.68-12.23-41.13-10S221,86,220.42,101Z" style="fill: rgb(153, 153, 153); transform-origin: 257.807px 133.574px;" id="elexx97xmel27" class="animable"></path><g style="clip-path: url(&quot;#freepik--clip-path-4--inject-74&quot;); transform-origin: 273.123px 141.635px;" id="elnslv0kupwe8" class="animable"><g id="elswkvnni23qp"><path d="M280.61,129.82c0,15-.6,32.42-8.4,45a96,96,0,0,1-13.25,17c5.82-1.74,11.21-4.37,14.26-6.86,6.12-5,12.23-25.57,12.23-25.57s6.12-30,9.45-40.57a31.31,31.31,0,0,0-4-27.37C288.7,96.65,280.61,116.83,280.61,129.82Z" style="fill: rgb(255, 255, 255); opacity: 0.5; transform-origin: 277.688px 141.635px;" class="animable"></path></g><g id="eloiyg79esagj"><path d="M251.83,154.49s-3.73,7.8-1,9.16,6.11-1.36,6.11-4.41S253.18,152.12,251.83,154.49Z" style="fill: rgb(255, 255, 255); opacity: 0.5; transform-origin: 253.385px 158.895px;" class="animable"></path></g></g><path d="M220.42,101s-1.66,42.24-1.11,54.47,13.34,35.57,22.79,37.79,25-3.33,31.12-8.33,12.23-25.57,12.23-25.57,6.12-30,9.45-40.57,1.67-23.34-10-34.46-31.68-12.23-41.13-10S221,86,220.42,101Z" style="fill: none; stroke: rgb(38, 50, 56); stroke-linecap: round; stroke-linejoin: round; transform-origin: 257.807px 133.574px;" id="elsey90csmn4i" class="animable"></path><path d="M227.35,133a22.51,22.51,0,0,1,16.85-1" style="fill: none; stroke: rgb(38, 50, 56); stroke-linecap: round; stroke-linejoin: round; stroke-width: 2px; transform-origin: 235.775px 131.911px;" id="el2cmzt5umcyu" class="animable"></path><path d="M259.14,133.91s11.44-.32,18.12,6.68" style="fill: none; stroke: rgb(38, 50, 56); stroke-linecap: round; stroke-linejoin: round; stroke-width: 2px; transform-origin: 268.2px 137.249px;" id="elgow5h65z63p" class="animable"></path><path d="M228,142.49s4.13,6.68,14.62,2.23" style="fill: none; stroke: rgb(38, 50, 56); stroke-linecap: round; stroke-linejoin: round; stroke-width: 2px; transform-origin: 235.31px 144.369px;" id="elkd98exgft5" class="animable"></path><path d="M257.23,147.26a13.33,13.33,0,0,0,16.21,3.82" style="fill: none; stroke: rgb(38, 50, 56); stroke-linecap: round; stroke-linejoin: round; stroke-width: 2px; transform-origin: 265.335px 149.814px;" id="elt7gu6y1ha" class="animable"></path><path d="M240.39,161.88s1.59,4.45,8.9,4.77,8.58-4.13,8.58-4.13" style="fill: none; stroke: rgb(38, 50, 56); stroke-linecap: round; stroke-linejoin: round; transform-origin: 249.13px 164.273px;" id="elq381gwwdr9t" class="animable"></path><path d="M237.21,170.47s6.67,6.35,21.29,3.49" style="fill: none; stroke: rgb(38, 50, 56); stroke-linecap: round; stroke-linejoin: round; transform-origin: 247.855px 172.585px;" id="elqkd1wfgss5" class="animable"></path><path d="M243.77,74.37C234.32,76.59,221,86,220.42,101c0,0-.41,10.56-.76,22.65l.76.7,4.45-20s23.34,11.67,60.58,7.22c0,0,0,12.79.56,17.79s-1.11,15.56,2.22,16.12c0,0,.11,0,.16,0,2-9.32,4.69-20.9,6.51-26.67,3.33-10.56,1.67-23.34-10-34.46S253.22,72.14,243.77,74.37Z" style="fill: rgb(38, 50, 56); stroke: rgb(38, 50, 56); stroke-linecap: round; stroke-linejoin: round; transform-origin: 258.038px 109.451px;" id="elws0rgdyifr8" class="animable"></path><g id="el3y00to2r023"><g style="opacity: 0.2; transform-origin: 279.249px 91.2014px;" class="animable"><path d="M286.17,94.64a3,3,0,0,0,0-6,3.05,3.05,0,0,0-.6.06A3,3,0,0,0,281,84.74a2.76,2.76,0,0,0-.5.69,3,3,0,0,0-.72-.23,3,3,0,0,0-4.15-4,1.64,1.64,0,0,0,.15-.49,1.51,1.51,0,1,0-1.67,1.33,1.5,1.5,0,0,0,.6,0A3,3,0,0,0,274.3,85a1.54,1.54,0,0,0-.64-.23A1.51,1.51,0,1,0,275,86.39a1.26,1.26,0,0,0,0-.39,3,3,0,0,0,1.6.83,2.89,2.89,0,0,0-.33,1.34,3,3,0,0,0,5.66,1.45,3.07,3.07,0,0,0,1.84.22,3,3,0,0,0-.6,1.78,2.88,2.88,0,0,0,.06.59,1.5,1.5,0,0,0-1-.57,1.51,1.51,0,1,0,1.34,1.67,2.26,2.26,0,0,0,0-.26A3,3,0,0,0,286.17,94.64Z" style="fill: rgb(255, 255, 255); transform-origin: 280.577px 86.8405px;" id="eldpqqu12jmtu" class="animable"></path><path d="M272.53,81.49a1.51,1.51,0,1,0-1.67,1.34A1.51,1.51,0,0,0,272.53,81.49Z" style="fill: rgb(255, 255, 255); transform-origin: 271.029px 81.3294px;" id="elvx7ir6ow6pb" class="animable"></path><path d="M268,77.83a1.51,1.51,0,1,0,1.34,1.67A1.52,1.52,0,0,0,268,77.83Z" style="fill: rgb(255, 255, 255); transform-origin: 267.839px 79.3314px;" id="elt6pfphbkp2q" class="animable"></path><path d="M290.86,96.33a1.51,1.51,0,1,0-1.67,1.33A1.51,1.51,0,0,0,290.86,96.33Z" style="fill: rgb(255, 255, 255); transform-origin: 289.36px 96.1596px;" id="el7uhsjuawn86" class="animable"></path><path d="M286.11,96.76a1.51,1.51,0,0,0-1.66,1.34,1.51,1.51,0,0,0,3,.33A1.52,1.52,0,0,0,286.11,96.76Z" style="fill: rgb(255, 255, 255); transform-origin: 285.952px 98.2367px;" id="elsg33koy9az8" class="animable"></path><path d="M276.21,93.84a1.51,1.51,0,1,0,1.33,1.67A1.51,1.51,0,0,0,276.21,93.84Z" style="fill: rgb(255, 255, 255); transform-origin: 276.04px 95.3403px;" id="el97zr13pd7k" class="animable"></path><path d="M290.82,101.57a1.51,1.51,0,1,0,1.34,1.66A1.51,1.51,0,0,0,290.82,101.57Z" style="fill: rgb(255, 255, 255); transform-origin: 290.658px 103.071px;" id="el4n31kd5hqle" class="animable"></path></g></g><path d="M248.83,330.12l-8.22-6.36s-10.84-14.2-12.71-17.19-12.71-4.86-16.83-6.73-9-1.13-9,.74,3.74,4.12,7.85,5.24,10.1,8.6,10.1,8.6-23.93-.38-28.79-.75-18.32-1.87-18.69.37,0,4.86,6,4.86,19.06,3,19.06,3V326s-22.8,3.36-25.42,3.36-4.48,1.12-4.48,3,3.36,3,3.36,3-1.12,2.25,1.5,4.49a15.51,15.51,0,0,0,5.23,3,7.31,7.31,0,0,0,6.36,3.74c4.48,0,25.42.37,29.16.37s12.33-1.12,12.33-1.12L247,349.19Z" style="fill: rgb(153, 153, 153); stroke: rgb(38, 50, 56); stroke-linecap: round; stroke-linejoin: round; transform-origin: 208.265px 323.972px;" id="eld80y2ir8cmm" class="animable"></path><path d="M171.07,335.35s18.69,1.87,28-.37" style="fill: none; stroke: rgb(38, 50, 56); stroke-linecap: round; stroke-linejoin: round; transform-origin: 185.07px 335.531px;" id="el4gbz1djn8ds" class="animable"></path><path d="M177.8,342.83s12,.37,22.06-.37" style="fill: none; stroke: rgb(38, 50, 56); stroke-linecap: round; stroke-linejoin: round; transform-origin: 188.83px 342.691px;" id="el42rj7bcsyoh" class="animable"></path><path d="M317.28,312.42l-72.36,13-3.26,30s36.51,0,54.11-1.3,44.33-4.56,44.33-12.39-.65-22.81-.65-22.81" style="fill: rgb(64, 123, 255); transform-origin: 290.88px 333.92px;" id="el6dilbrckeuj" class="animable"></path><g style="clip-path: url(&quot;#freepik--clip-path-5--inject-74&quot;); transform-origin: 288.172px 334.695px;" id="el4v7qqchlk3c" class="animable"><g id="eltqofew51k"><path d="M308.9,313.93l-64,11.53-3.26,30s24.27,0,42.78-.7c18.08-2.05,37.65-5,43-8.78,10.21-7.2,8.41-15,2.4-22.21C325.07,318,313.45,314.94,308.9,313.93Z" style="stroke: rgb(38, 50, 56); stroke-linecap: round; stroke-linejoin: round; opacity: 0.2; transform-origin: 288.172px 334.695px;" class="animable"></path></g></g><path d="M317.28,312.42l-72.36,13-3.26,30s36.51,0,54.11-1.3,44.33-4.56,44.33-12.39-.65-22.81-.65-22.81" style="fill: none; stroke: rgb(38, 50, 56); stroke-linecap: round; stroke-linejoin: round; transform-origin: 290.88px 333.92px;" id="eli8hfwr2q55a" class="animable"></path><path d="M93.33,285.72S166.88,274.8,169,274.38s12.61-16,14.71-17.65,10.51-9.67,13.45-12.61,6.3-11.77,7.57-13.45,4.62.42,4.62,4.2-2.94,9.25-4.2,11.77-3.37,2.1-3.37,5.88a8,8,0,0,0,2.53,5.89l26.89-10.93s5.89-3.36,8.41-2.1,1.68,5-2.52,7.14-21,13-21,13a10.68,10.68,0,0,0,5,1.26c2.94,0,21.85-2.1,25.63-2.1s2.52,5.89-.42,6.31-24.79,5-27.32,5-.42,4.2,2.53,4.2,23.53,4.2,23.53,6.31-2.52,3.36-6.3,3.78-22.7-1.68-22.7-1.68,13.45,8.4,15.13,9.24.84,2.94-4.2,2.94-26.06-6.3-26.06-6.3l-24.37-2.94s-43.29,25.21-60.1,34.88S91.65,337.84,87,333.22s-7.14-22.28-5-29.42A65.5,65.5,0,0,1,86.61,292" style="fill: rgb(153, 153, 153); stroke: rgb(38, 50, 56); stroke-linecap: round; stroke-linejoin: round; transform-origin: 165.147px 282.874px;" id="eld4wczmif2u5" class="animable"></path><path d="M85.86,288.3s-8.47,22.16-7.17,33.9,7.17,20.2,20.86,16.95S168,310.46,168,310.46L162.79,272l-69.1,11.74S89.77,281.13,85.86,288.3Z" style="fill: rgb(64, 123, 255); transform-origin: 123.277px 305.925px;" id="el1f13ylieptf" class="animable"></path><g style="clip-path: url(&quot;#freepik--clip-path-6--inject-74&quot;); transform-origin: 125.522px 308.1px;" id="el6mg5uaskp4d" class="animable"><g id="el34o0j18t71d"><path d="M91.51,297.93c-5.7,8.4-13.21,21.2-4.48,35.29,2,3.14,5.67,5.15,10.42,6.33.68-.11,1.38-.23,2.1-.4,13.69-3.26,68.45-28.69,68.45-28.69l-4.26-31.41-1.58-2.4S97.2,289.54,91.51,297.93Z" style="stroke: rgb(38, 50, 56); stroke-linecap: round; stroke-linejoin: round; opacity: 0.2; transform-origin: 125.522px 308.1px;" class="animable"></path></g></g><path d="M85.86,288.3s-8.47,22.16-7.17,33.9,7.17,20.2,20.86,16.95S168,310.46,168,310.46L162.79,272l-69.1,11.74S89.77,281.13,85.86,288.3Z" style="fill: none; stroke: rgb(38, 50, 56); stroke-linecap: round; stroke-linejoin: round; transform-origin: 123.277px 305.925px;" id="elnpwcojtn6f" class="animable"></path><path d="M291.86,277.87s-4.56-26.73,13-48.24" style="fill: none; stroke: rgb(38, 50, 56); stroke-linecap: round; stroke-linejoin: round; transform-origin: 298.094px 253.75px;" id="elg8omlyj8oe8" class="animable"></path><path d="M291.21,244a177.58,177.58,0,0,0-2,28" style="fill: none; stroke: rgb(38, 50, 56); stroke-linecap: round; stroke-linejoin: round; transform-origin: 290.207px 258px;" id="el2fw38c3sluq" class="animable"></path><polyline points="282.08 362.61 251.44 363.26 252.75 377.61 281.43 376.95" style="fill: none; stroke: rgb(38, 50, 56); stroke-linecap: round; stroke-linejoin: round; transform-origin: 266.76px 370.11px;" id="elkff469vniai" class="animable"></polyline></g><defs>     <filter id="active" height="200%">         <feMorphology in="SourceAlpha" result="DILATED" operator="dilate" radius="2"></feMorphology>                <feFlood flood-color="#32DFEC" flood-opacity="1" result="PINK"></feFlood>        <feComposite in="PINK" in2="DILATED" operator="in" result="OUTLINE"></feComposite>        <feMerge>            <feMergeNode in="OUTLINE"></feMergeNode>            <feMergeNode in="SourceGraphic"></feMergeNode>        </feMerge>    </filter>    <filter id="hover" height="200%">        <feMorphology in="SourceAlpha" result="DILATED" operator="dilate" radius="2"></feMorphology>                <feFlood flood-color="#ff0000" flood-opacity="0.5" result="PINK"></feFlood>        <feComposite in="PINK" in2="DILATED" operator="in" result="OUTLINE"></feComposite>        <feMerge>            <feMergeNode in="OUTLINE"></feMergeNode>            <feMergeNode in="SourceGraphic"></feMergeNode>        </feMerge>            <feColorMatrix type="matrix" values="0   0   0   0   0                0   1   0   0   0                0   0   0   0   0                0   0   0   1   0 "></feColorMatrix>    </filter></defs><defs><clipPath id="freepik--clip-path--inject-74"><path d="M302.07,205.51s29.55,4.78,30.42,9.13S341,333.93,340.1,341.75s-22.38,1.09-32.38-1.08-12.17-13.48-12.17-13.48l-3.91-46.06-10.43,48.24,13.47,99.95-53,2.61H162.57V190.3s82.14,1.3,86.92.87S302.07,205.51,302.07,205.51Z" style="fill:#407BFF;stroke:#263238;stroke-linecap:round;stroke-linejoin:round"></path></clipPath><clipPath id="freepik--clip-path-2--inject-74"><path d="M128.24,166.4s-18.26,3.91-33.9,12.38-18.25,26.73-8.48,38.46,25.43,15.65,25.43,15.65,20.21,71.05,18.9,78.22-26.07,45-33.9,78.23,9.13,87.35,9.13,87.35h148s8.47-42.37-2.61-78.88-15.65-58-15-72.35,11.73-60,15-65.84,28-33.25,35.85-37.16,39.12-19.56,41.72-35.85-.65-17.61-9.12-22.17-33.25-3.91-43-3.91S183,157.27,183,157.27Z" style="fill:#fff;stroke:#263238;stroke-linecap:round;stroke-linejoin:round"></path></clipPath><clipPath id="freepik--clip-path-3--inject-74"><path d="M250.79,397.81c-2.46-8.11-4.6-15.48-6.44-22.2-63.62,21.61-124.63,2.89-142.69-3.72a150.64,150.64,0,0,0-5.37,17.45c-7.82,33.25,9.13,87.35,9.13,87.35h148S261.87,434.32,250.79,397.81Z" style="fill:#263238;stroke:#263238;stroke-linecap:round;stroke-linejoin:round"></path></clipPath><clipPath id="freepik--clip-path-4--inject-74"><path d="M220.42,101s-1.66,42.24-1.11,54.47,13.34,35.57,22.79,37.79,25-3.33,31.12-8.33,12.23-25.57,12.23-25.57,6.12-30,9.45-40.57,1.67-23.34-10-34.46-31.68-12.23-41.13-10S221,86,220.42,101Z" style="fill:#999;stroke:#263238;stroke-linecap:round;stroke-linejoin:round"></path></clipPath><clipPath id="freepik--clip-path-5--inject-74"><path d="M317.28,312.42l-72.36,13-3.26,30s36.51,0,54.11-1.3,44.33-4.56,44.33-12.39-.65-22.81-.65-22.81" style="fill:#407BFF;stroke:#263238;stroke-linecap:round;stroke-linejoin:round"></path></clipPath><clipPath id="freepik--clip-path-6--inject-74"><path d="M85.86,288.3s-8.47,22.16-7.17,33.9,7.17,20.2,20.86,16.95S168,310.46,168,310.46L162.79,272l-69.1,11.74S89.77,281.13,85.86,288.3Z" style="fill:#407BFF;stroke:#263238;stroke-linecap:round;stroke-linejoin:round"></path></clipPath></defs></svg>